# Blender v2.79 (sub 0) OBJ File: ''
# www.blender.org
mtllib hylian-shield-triforce(cook-torrance-gold).mtl
o Hylian_Shield_Tri_Force_Pyramide
v -0.060549 0.901339 -0.465523
v 0.028406 0.901339 -0.467042
v 0.028406 0.901339 -0.467042
v -0.060549 0.901339 -0.465523
v -0.016071 0.968233 -0.466283
v 0.024488 0.903012 -0.485710
v -0.057270 0.903012 -0.484314
v -0.016391 0.964493 -0.485012
v -0.056631 0.903012 -0.446856
v 0.025127 0.903012 -0.448252
v -0.015752 0.964493 -0.447554
vt -1.000000 2.000000
vt 1.000000 2.000000
vt 1.000000 2.000000
vt -1.000000 2.000000
vt 0.000033 0.000000
vt 0.919098 1.949997
vt -0.919098 1.949997
vt 0.000033 0.111816
vt -0.919098 1.949997
vt 0.919098 1.949997
vt 0.000033 0.111816
vn 0.0000 0.0000 1.0000
vn -0.0171 0.0000 -0.9999
vn 0.0171 0.0000 0.9999
vn 0.8257 0.5504 -0.1240
vn -0.0015 -0.9960 -0.0889
vn -0.8294 0.5504 -0.0957
vn -0.8257 0.5504 0.1240
vn 0.0015 -0.9960 0.0889
vn 0.8294 0.5504 0.0958
usemtl chrome
s 1
f 1/1/1 2/2/1 3/3/1 4/4/1
f 3/3/1 2/2/1 5/5/1
f 6/6/2 7/7/2 8/8/2
f 1/1/1 4/4/1 5/5/1
f 9/9/3 10/10/3 11/11/3
f 2/2/4 6/6/4 8/8/4 5/5/4
f 1/1/5 7/7/5 6/6/5 2/2/5
f 5/5/6 8/8/6 7/7/6 1/1/6
f 4/4/7 9/9/7 11/11/7 5/5/7
f 3/3/8 10/10/8 9/9/8 4/4/8
f 5/5/9 11/11/9 10/10/9 3/3/9
o Hylian_Shield_Tri_Force_Pyramide_1
v 0.028406 0.640239 -0.467042
v -0.060549 0.640239 -0.465523
v -0.060549 0.640239 -0.465523
v 0.028406 0.640239 -0.467042
v -0.016071 0.573346 -0.466283
v -0.057270 0.638566 -0.484314
v 0.024488 0.638566 -0.485710
v -0.016391 0.577085 -0.485012
v 0.025127 0.638566 -0.448252
v -0.056631 0.638566 -0.446856
v -0.015752 0.577085 -0.447554
vt -1.000000 2.000000
vt 1.000000 2.000000
vt 1.000000 2.000000
vt -1.000000 2.000000
vt 0.000033 0.000000
vt 0.919098 1.949997
vt -0.919098 1.949997
vt 0.000033 0.111816
vt -0.919098 1.949997
vt 0.919098 1.949997
vt 0.000033 0.111816
vn 0.0000 0.0000 1.0000
vn -0.0171 -0.0000 -0.9999
vn 0.0171 -0.0000 0.9999
vn -0.8294 -0.5504 -0.0957
vn -0.0015 0.9960 -0.0889
vn 0.8257 -0.5504 -0.1240
vn 0.8294 -0.5504 0.0957
vn 0.0015 0.9960 0.0889
vn -0.8257 -0.5504 0.1240
usemtl chrome
s 1
f 12/12/10 13/13/10 14/14/10 15/15/10
f 14/14/10 13/13/10 16/16/10
f 17/17/11 18/18/11 19/19/11
f 12/12/10 15/15/10 16/16/10
f 20/20/12 21/21/12 22/22/12
f 13/13/13 17/17/13 19/19/13 16/16/13
f 12/12/14 18/18/14 17/17/14 13/13/14
f 16/16/15 19/19/15 18/18/15 12/12/15
f 15/15/16 20/20/16 22/22/16 16/16/16
f 14/14/17 21/21/17 20/20/17 15/15/17
f 16/16/18 22/22/18 21/21/18 14/14/18
o Hylian_Shield_Tri_Force_Pyramide_2
v -0.009535 0.828452 -0.466394
v 0.079419 0.828452 -0.467913
v 0.079419 0.828452 -0.467913
v -0.009535 0.828452 -0.466394
v 0.034942 0.895345 -0.467154
v 0.075501 0.830124 -0.486581
v -0.006257 0.830124 -0.485185
v 0.034622 0.891606 -0.485883
v -0.005617 0.830124 -0.447727
v 0.076141 0.830124 -0.449123
v 0.035262 0.891606 -0.448425
vt -1.000000 2.000000
vt 1.000000 2.000000
vt 1.000000 2.000000
vt -1.000000 2.000000
vt 0.000033 0.000000
vt 0.919098 1.949997
vt -0.919098 1.949997
vt 0.000033 0.111816
vt -0.919098 1.949997
vt 0.919098 1.949997
vt 0.000033 0.111816
vn 0.0000 0.0000 1.0000
vn -0.0171 0.0000 -0.9999
vn 0.0171 -0.0000 0.9999
vn 0.8257 0.5504 -0.1240
vn -0.0015 -0.9960 -0.0889
vn -0.8294 0.5504 -0.0957
vn -0.8257 0.5504 0.1240
vn 0.0015 -0.9960 0.0889
vn 0.8294 0.5504 0.0957
usemtl chrome
s 1
f 23/23/19 24/24/19 25/25/19 26/26/19
f 25/25/19 24/24/19 27/27/19
f 28/28/20 29/29/20 30/30/20
f 23/23/19 26/26/19 27/27/19
f 31/31/21 32/32/21 33/33/21
f 24/24/22 28/28/22 30/30/22 27/27/22
f 23/23/23 29/29/23 28/28/23 24/24/23
f 27/27/24 30/30/24 29/29/24 23/23/24
f 26/26/25 31/31/25 33/33/25 27/27/25
f 25/25/26 32/32/26 31/31/26 26/26/26
f 27/27/27 33/33/27 32/32/27 25/25/27
o Hylian_Shield_Tri_Force_Pyramide_3
v -0.111563 0.828452 -0.464652
v -0.022608 0.828452 -0.466171
v -0.022608 0.828452 -0.466171
v -0.111563 0.828452 -0.464652
v -0.067086 0.895345 -0.465412
v -0.026526 0.830124 -0.484839
v -0.108284 0.830124 -0.483443
v -0.067405 0.891606 -0.484141
v -0.107645 0.830124 -0.445985
v -0.025887 0.830124 -0.447381
v -0.066766 0.891606 -0.446683
vt -1.000000 2.000000
vt 1.000000 2.000000
vt 1.000000 2.000000
vt -1.000000 2.000000
vt 0.000033 0.000000
vt 0.919098 1.949997
vt -0.919098 1.949997
vt 0.000033 0.111816
vt -0.919098 1.949997
vt 0.919098 1.949997
vt 0.000033 0.111816
vn 0.0000 0.0000 1.0000
vn -0.0171 0.0000 -0.9999
vn 0.0171 -0.0000 0.9999
vn 0.8257 0.5504 -0.1240
vn -0.0015 -0.9960 -0.0889
vn -0.8294 0.5504 -0.0958
vn -0.8257 0.5504 0.1240
vn 0.0015 -0.9960 0.0889
vn 0.8294 0.5504 0.0957
usemtl chrome
s 1
f 34/34/28 35/35/28 36/36/28 37/37/28
f 36/36/28 35/35/28 38/38/28
f 39/39/29 40/40/29 41/41/29
f 34/34/28 37/37/28 38/38/28
f 42/42/30 43/43/30 44/44/30
f 35/35/31 39/39/31 41/41/31 38/38/31
f 34/34/32 40/40/32 39/39/32 35/35/32
f 38/38/33 41/41/33 40/40/33 34/34/33
f 37/37/34 42/42/34 44/44/34 38/38/34
f 36/36/35 43/43/35 42/42/35 37/37/35
f 38/38/36 44/44/36 43/43/36 36/36/36
