# Blender v2.79 (sub 0) OBJ File: 'final-scene.blend'
# www.blender.org
mtllib floor(diffuse-light-gray).mtl
o Cube.001
v 3.835737 -0.086759 -3.429089
v 3.835737 -0.086759 3.429090
v -3.835737 -0.086759 3.429089
v -3.835735 -0.086759 -3.429091
v 3.835738 0.086759 -3.429088
v -3.835736 0.086759 -3.429090
v -3.835738 0.086759 3.429088
v 3.835734 0.086759 3.429092
vn 0.0000 -1.0000 -0.0000
vn -0.0000 1.0000 0.0000
vn 1.0000 0.0000 0.0000
vn -0.0000 -0.0000 1.0000
vn -1.0000 -0.0000 -0.0000
vn 0.0000 0.0000 -1.0000
usemtl Material.001
s 1
f 1//1 2//1 3//1 4//1
f 5//2 6//2 7//2 8//2
f 1//3 5//3 8//3 2//3
f 2//4 8//4 7//4 3//4
f 3//5 7//5 6//5 4//5
f 5//6 1//6 4//6 6//6
